<?xml version="1.0" encoding="UTF-8"?>
<svg id="_图层_2" data-name="图层 2" xmlns="http://www.w3.org/2000/svg" viewBox="0 0 402.25 251.27">
  <defs>
    <style>
      .cls-1 {
        fill: #fff;
      }
    </style>
  </defs>
  <g id="_图层_1-2" data-name="图层 1">
    <g>
      <path class="cls-1" d="m351.97,116.79c-25.6-.5-51.34-.89-77.15-1.16,8.01-5.48,15.41-11.91,22.01-19.25,23.1-25.48,35.97-61.68,30.71-95.72,0-.34-.3-.64-.68-.64s-.68.27-.68.64c-.08,16.39-3.33,32.71-9.66,47.78-11.55,28.25-32.9,49.94-58.58,62.93,11.89-15.15,17.68-35.02,12.68-53.77-.08-.38-.34-.68-.68-.68-.38,0-.68.3-.68.68-.23,17.83-7.69,35.37-20.26,47.86-3.75,3.86-7.96,7.14-12.47,9.85-23.61-.13-47.25-.15-70.88-.04-4.49-2.71-8.67-5.97-12.4-9.81-12.61-12.5-20.07-30.03-20.26-47.86-.11-.91-1.21-.83-1.36,0-5,18.86.87,38.81,12.91,53.99-26.28-13.14-47.56-35.93-58.8-63.16-6.32-15.07-9.58-31.39-9.69-47.78,0-.3-.23-.61-.57-.64-.34-.08-.68.19-.76.57-6.77,44.31,16.12,89.55,52.56,114.98-42.61.46-85.12,1.35-127.28,2.79-.79.72,403.05.72,402.25,0,0,0-50.28-1.56-50.28-1.57Z"/>
      <g>
        <path class="cls-1" d="m48.72,179.16c-1,1.2-2.07,1.89-3.21,2.09-.95.2-1.81.06-2.58-.41-.77-.47-1.18-1.23-1.23-2.28-.15-2.79-.42-4.98-.82-6.57-.5-2.09-1.34-4.03-2.54-5.83-.15-.3-.11-.56.11-.78.22-.22.51-.26.86-.11,3.19,1.34,5.73,2.84,7.62,4.48,1.59,1.4,2.59,2.86,2.99,4.41.45,1.79.05,3.46-1.2,5Zm7.1-7.1l-3.59,23.98c-.4,2.59-.55,4.78-.45,6.57.1,2.34.58,4.49,1.46,6.46.87,1.97.66,3.6-.63,4.89-2.04,2.09-4.31,3.41-6.8,3.96-1.05.25-1.82.02-2.32-.67-.4-.6-.55-1.42-.45-2.46.3-2.39.45-4.16.45-5.3.1-4.83-.95-7.84-3.14-9.04-.3-.2-.42-.47-.37-.82.05-.35.25-.5.6-.45,1.44.25,2.44.22,2.99-.07.65-.35,1.24-1.24,1.79-2.69l9.11-24.58c.25-.5.55-.71.9-.63.35.07.5.36.45.86Zm-2.32-13c-.8,1.1-1.84,1.94-3.14,2.54-.7.25-1.37.2-2.02-.15-.65-.35-1.07-.92-1.27-1.72-.5-2.54-1.07-4.66-1.72-6.35-.8-2.24-1.82-4.11-3.06-5.6-.15-.25-.15-.5,0-.75s.4-.32.75-.22c2.04.55,3.91,1.27,5.6,2.17,2.19,1.15,3.81,2.39,4.86,3.74,1.39,2.14,1.39,4.26,0,6.35Zm43.1-2.09h.15l3.66-3.59,4.26,4.11c.2.2.26.41.19.63-.07.22-.24.34-.49.34l-7.77.22c-.1,2.54-.42,4.88-.97,7.02l2.02-.08,3.66-3.58,4.41,4.11c.25.55.1.87-.45.97l-10.01.22c3.73,4.38,8.14,7.87,13.22,10.46.35.2.5.47.45.82-.05.35-.27.57-.67.67-3.69,1.1-6.72,3.19-9.11,6.27-2.59-5.13-4.28-10.21-5.08-15.24-2.79,6.27-7.54,11.18-14.27,14.72-.5.25-.91.19-1.23-.19-.32-.37-.26-.81.19-1.31,4.23-4.88,7-10.18,8.29-15.91-1.74.1-3.34.27-4.78.52l-1.49-1.34c-.1.2-.27.3-.52.3l-10.08.22c-.2.8-.47,1.69-.82,2.69,3.09.65,5.78,1.69,8.07,3.14,2.04,1.94,2.54,3.88,1.49,5.83-.6,1.15-1.49,2.07-2.69,2.76-.8.45-1.63.52-2.5.22-.87-.3-1.41-.92-1.61-1.87-.7-3.19-1.84-6-3.44-8.44-2.24,5.08-6,9.54-11.28,13.37-.5.35-.92.34-1.27-.04-.35-.37-.32-.83.07-1.38,3.34-4.53,5.53-9.88,6.57-16.06-1.59.05-3.44.25-5.53.6l-2.32-2.09,8.14-.22c.25-2.34.37-4.46.37-6.35v-.6c-1.59.05-3.39.25-5.38.6l-2.54-2.09,7.92-.22c0-3.83-.17-7.07-.52-9.71-.05-.3.01-.51.19-.63.17-.12.38-.14.63-.04l9.04,3.59c.95.35,1.14.97.6,1.87l-2.02,3.21v1.49h.37l3.66-3.59,4.26,4.11c.2.2.26.41.19.63-.07.22-.24.34-.49.34l-7.99.22c-.1,2.59-.35,4.93-.75,7.02l2.02-.08,3.66-3.58,4.33,4.03,6.8-.22c.35-2.34.52-4.46.52-6.35v-.52c-1.79.1-3.41.27-4.85.52l-2.54-2.09,7.4-.22c0-3.83-.17-7.07-.52-9.71-.05-.3.01-.51.19-.63.17-.12.39-.14.63-.04l9.79,3.59c.95.35,1.14.97.6,1.87l-2.02,3.21v1.49Zm-10.01,29.21l3.66-3.96,9.19,5c.6.35.62.87.07,1.57l-2.02,2.69.45,13c.15,5.08-2.54,9.54-8.07,13.37-.4.3-.77.47-1.12.52-.5.05-.87-.32-1.12-1.12-.8-2.64-1.82-4.71-3.06-6.2l-14.42.37c-.3,1.44-.85,2.71-1.64,3.81-.9,1.29-2.34,2.56-4.33,3.81-.6.35-1.13.47-1.61.37-.47-.1-.69-.4-.64-.9l.3-8.37v-18.75c0-2.89-.12-5.5-.37-7.84-.05-.25.04-.41.26-.49.22-.08.49-.04.78.11l7.54,3.44,16.13-.45Zm.6,1.72l-16.73.45v9.64l13.97-.37c.75,0,1.12.29,1.12.86s-.37.86-1.12.86l-13.97.37v8.59c0,.65-.03,1.12-.07,1.42l16.73-.45.07-21.36Z"/>
        <path class="cls-1" d="m142.61,168.18l2.84-3.51,6.12,4.78c.45.45.52.87.22,1.27l-1.57,2.24-.15,14.12c0,2.49-.18,4.43-.52,5.83-.5,1.99-1.52,3.86-3.06,5.6-.45.55-.88.88-1.31,1.01-.42.12-.78-.29-1.08-1.23-.4-1.19-1.05-2.29-1.94-3.29l-9.34.22c-.15.75-.5,1.72-1.05,2.91-.45.95-1.2,1.99-2.24,3.14-.4.4-.75.57-1.05.52-.3-.05-.45-.42-.45-1.12l.22-8.52.15-20.32c-2.14,3.19-4.26,6.18-6.35,8.96-.2.25-.4.27-.6.07-.2-.2-.22-.42-.07-.67,4.38-9.16,8.27-20.39,11.65-33.69l7.47,3.29c.2.1.3.24.3.41s-.1.39-.3.64l-1.64,1.94c-.9,1.89-1.57,3.29-2.02,4.18l3.14-.08,2.99-3.51,5.53,5.23c.4.4.37.75-.07,1.05l-2.54,1.79-5.6,6.8,2.32-.08Zm9.56,32.19l-15.46,10.23c-2.29,1.54-3.98,2.79-5.08,3.74-1.1.95-2.09.77-2.99-.52l-4.26-6.65c-.25-.4-.32-.73-.22-1.01.1-.27.35-.44.75-.49,9.06-1.94,18.03-4.11,26.89-6.5.25-.05.42.1.52.45.1.35.05.6-.15.75Zm-12.33-41.68l-3.88.07c-2.04,3.84-3.61,6.67-4.71,8.52l2.32,1.12,3.88-.08,2.39-9.64Zm-4.41,23.31l-2.32.07-.07,11.35h2.32l.07-11.43Zm.07-11.88l-2.24.07-.07,10.08h2.24l.07-10.16Zm7.32,11.65l-2.24.08-.15,11.43,2.24-.08.15-11.43Zm.15-11.88l-2.17.08-.15,10.16,2.17-.07.15-10.16Zm34.58-7.69c2.04,2.79,4.18,4.91,6.42,6.35,1.94,1.25,4.73,2.46,8.37,3.66.4.15.6.41.6.78s-.22.59-.67.63c-2.89.5-5.48,2.22-7.77,5.15-4.03-4.38-6.8-9.91-8.29-16.58h-1.12v.67l.15,5.53c.05,1.94-.42,3.66-1.42,5.15-1.2,1.84-2.91,3.54-5.15,5.08-.7.45-1.22.62-1.57.52-.5-.15-.72-.72-.67-1.72l.3-7.47v-1.05c-2.09,2.29-4.83,4.61-8.22,6.95l5.23,3.66c.45.5.42,1-.07,1.49l-1.34,1.05c-.3.55-.62,1.07-.97,1.57l1.72-.07,2.69-3.36,5.83,3.36c.85.5.9,1.17.15,2.02l-1.49,1.57c-1.64,3.93-3.46,7.54-5.45,10.83.35.3.87.8,1.57,1.49.85.95,1.05,2.24.6,3.88-.35,1.44-1,2.74-1.94,3.88-.7.8-1.41,1.11-2.13.93-.72-.17-1.31-.86-1.76-2.05-.2-.6-.42-1.22-.67-1.87-4.08,5.23-9.46,10.28-16.13,15.16-.4.3-.72.32-.97.08-.35-.3-.3-.67.15-1.12,5.53-5.68,10.26-12.4,14.19-20.17-.45-.85-1.17-2.17-2.17-3.96-.15-.25-.15-.5,0-.75.15-.25.37-.32.67-.22,1.05.4,2.12.85,3.21,1.34,1.39-2.94,2.66-6.05,3.81-9.34l-2.99.08c-2.74,4.18-5.88,7.82-9.41,10.91-.35.35-.69.4-1.01.15-.32-.25-.34-.6-.04-1.05,3.14-5.23,5.43-11.3,6.87-18.23-1.34.85-2.96,1.82-4.86,2.91-.3.2-.52.12-.67-.22s-.12-.65.07-.9c4.38-4.88,8.24-10.38,11.58-16.51l-2.61.08c-2.74.1-5.03.32-6.87.67l-2.17-2.09,15.61-.3v-7.77c0-1.94-.07-3.96-.22-6.05-.05-.35.01-.57.19-.67.17-.1.41-.1.71,0l8.52,2.76c.45.15.55.55.3,1.2l-1.12,2.91v7.25c1.74-3.39,3.71-7.49,5.9-12.33l5.75,5c.3.25.42.5.37.75-.05.25-.22.45-.52.6l-2.02.97c-2.09,1.54-4.53,3.26-7.32,5.15l6.87-.15,3.44-3.58,3.88,4.11c.2.2.27.41.22.63-.05.22-.2.34-.45.34l-13.67.3Zm-14.34-10.38c1.74,1.1,2.39,2.46,1.94,4.11-.2,1.49-1.07,2.69-2.61,3.58-.9.55-1.71.7-2.43.45-.72-.25-1.21-.85-1.46-1.79-.7-2.79-1.87-5.4-3.51-7.84-.25-.35-.31-.65-.19-.9.12-.25.39-.32.78-.22,2.94.4,5.43,1.27,7.47,2.61Zm21.96,48.85v2.54l.22,5.53c.05,1.94-.42,3.66-1.42,5.15-.9,1.34-2.61,3.04-5.15,5.08-.55.5-1.06.67-1.53.52-.47-.15-.69-.72-.64-1.72l.37-7.47v-9.41l-8.07.22c-.65.05-1.02-.25-1.12-.9-.1-.65.17-1.09.82-1.34.85-.4,1.27-1.52,1.27-3.36l.82-6.95c0-.2.07-.35.22-.45.15-.1.3-.1.45,0l3.81,2.39c.75.5,1,1.17.75,2.02l-1.87,6.72,2.91-.08v-11.65c-1.49.2-2.59.35-3.29.45l-1.87-2.09,5.15-.22v-2.91c0-2.19-.1-4.21-.3-6.05.05-.65.32-.9.82-.75l8.14,3.59c.4.15.47.55.22,1.19l-.75,1.94v2.61h.3l1.94-3.58,3.36,4.11c.2.2.26.41.19.63-.07.22-.24.34-.49.34l-5.3.3v11.88h.6l2.99-3.59,3.96,4.11c.3.5.2.82-.3.97l-7.25.22Z"/>
        <path class="cls-1" d="m218.43,177.6c-.8,1.34-2.07,2.29-3.81,2.84-.95.3-1.87.19-2.76-.34-.9-.52-1.37-1.31-1.42-2.35,0-3.93-.77-7.52-2.32-10.76-.15-.3-.14-.58.04-.86.17-.27.46-.34.86-.19,3.78,1.45,6.7,3.24,8.74,5.38.95.95,1.44,2.04,1.49,3.29.05,1.05-.22,2.04-.82,2.99Zm6.42-9.41l-4.63,22.26c-.55,2.59-.8,4.66-.75,6.2.05,1.99.55,4.01,1.49,6.05.85,1.94.62,3.59-.67,4.93-1.69,1.79-3.61,3.01-5.75,3.66-1.04.35-1.83.19-2.35-.49-.52-.67-.66-1.56-.41-2.65.4-2.14.55-4.31.45-6.5-.1-1.94-.28-3.33-.52-4.18-.4-1.34-1.15-2.32-2.24-2.91-.3-.15-.42-.41-.37-.78.05-.37.25-.54.6-.49,1.34.25,2.29.21,2.84-.11.55-.32,1.14-1.21,1.79-2.65l9.19-22.56c.2-.45.48-.66.86-.64.37.03.53.31.48.86Zm-1.79-7.92c-.6,1.25-1.59,2.27-2.99,3.06-.89.5-1.83.59-2.8.26-.97-.32-1.58-1.01-1.83-2.05-.75-3.88-2.19-7.27-4.33-10.16-.2-.3-.24-.58-.11-.86.12-.27.38-.38.78-.34,4.33.9,7.52,2.09,9.56,3.59,1.2.95,1.92,2.04,2.17,3.29.25,1.05.1,2.12-.45,3.21Zm18.15-1.87h.82l3.21-3.44,4.33,3.96c.3.5.2.82-.3.97l-16.13.52c-1.29.1-2.59.17-3.88.22l8.44,3.81c.65.25.77.77.37,1.57l-.82,2.02c-.1,1.25-.25,3.06-.45,5.45l1.94-.08,3.14-3.88,6.95,3.96c.45.3.52.65.22,1.05l-2.02,3.14c-.2,9.26-.6,17.63-1.2,25.1-.75,8.67-4.48,14.12-11.21,16.36-.4.1-.69.09-.86-.04-.17-.12-.21-.39-.11-.78.7-3.34,0-5.53-2.09-6.57-.4-.25-.56-.52-.48-.82.07-.3.31-.42.71-.37,2.19.2,3.67-.26,4.44-1.38.77-1.12,1.28-3.47,1.53-7.06.7-8.71,1.05-17.7,1.05-26.96l-2.17.07c-1.15,11.6-3.06,20.54-5.75,26.82-3.29,7.77-8.37,13.57-15.24,17.4-.4.2-.67.11-.82-.26-.15-.37-.03-.74.38-1.08,4.88-4.78,8.39-11.6,10.53-20.47,1.64-6.87,2.62-15.91,2.91-27.12.1-4.03,0-7.29-.3-9.79-.6.05-1.49.17-2.69.37l-1.57-2.09,7.24-.22.45-11.73c.05-.55.35-.72.9-.52l9.93,2.84c.85.25.92.97.22,2.17l-1.12,2.09-.52,4.78Zm17.93-.52l8.74-.3,3.66-3.59,4.26,4.11c.2.2.26.41.19.63-.08.22-.24.34-.49.34l-17.93.6c-3.39,3.79-7.32,7.17-11.8,10.16-.35.2-.62.17-.82-.08-.2-.25-.2-.52,0-.82,4.23-6.02,7.22-13.67,8.96-22.93l10.46,4.78c.55.35.5.87-.15,1.57l-1.94,1.49c-.95,1.45-1.99,2.79-3.14,4.03Zm7.39,31.75v10.31c.05,4.03-1.12,7.82-3.51,11.35-2.09,3.09-4.88,5.65-8.37,7.69-.45.25-.82.27-1.12.08-.3-.2-.47-.55-.52-1.05-.2-4.38-1.67-7.37-4.41-8.96-.45-.3-.63-.63-.56-1.01.07-.37.31-.58.71-.63,3.19.1,5.3-.2,6.35-.9,1.05-.7,1.57-2.24,1.57-4.63v-12.03c-2.84.1-5.23.32-7.17.67l-2.39-2.09,9.56-.3v-1.49c0-2.44-.17-4.98-.52-7.62-.05-.45,0-.72.15-.82.15-.1.37-.1.67,0l3.74,1.27c1.14-2.74,1.97-5.43,2.46-8.07l-3.81.15c-2.99.1-5.48.32-7.47.67l-2.32-2.09,13.67-.45,3.59-3.66,7.62,5.3c.4.25.55.55.45.9-.05.25-.27.5-.67.75l-1.87,1.2c-2.14,1.99-5.05,4.08-8.74,6.27l2.24.75c.45.15.67.57.67,1.27v5.45l1.94-.07,3.66-3.59,4.33,4.11c.3.5.2.82-.3.97l-9.63.3Z"/>
        <path class="cls-1" d="m346.39,194.1c1.99,4.83,4.66,8.44,7.99,10.83,1.24.95,2.24.77,2.99-.52l5-7.32c.4-.55.81-.73,1.23-.56.42.17.51.59.26,1.23-1.79,4.38-2.27,9.51-1.42,15.39.45,2.54-.08,4.33-1.57,5.38-2.14,1.09-4.73.82-7.77-.82-6.23-3.93-11.03-9.41-14.42-16.43-6.18,5.13-14.96,10.76-26.37,16.88-.5.25-.86.16-1.08-.26-.22-.42-.11-.81.34-1.16,10.26-7.67,18.35-15.29,24.28-22.86-1.84-6.22-3.04-14.09-3.58-23.6l-.67.07c-2.74.15-5.23.5-7.47,1.05l-1.49-1.27c-1.69,4.48-3.66,8.91-5.9,13.3,2.99,2.84,5.68,5.68,8.07,8.52,1.54,1.89,1.47,4.48-.22,7.77-1.29,2.39-2.64,4.11-4.03,5.15-1.54,1-2.71.55-3.51-1.34-1.64-3.83-3.44-7.64-5.38-11.43-5.23,8.32-11.48,16.04-18.75,23.16-.65.6-1.17.72-1.57.37-.4-.35-.37-.82.08-1.42,6.27-9.61,11.4-19.87,15.39-30.78-3.49-5.88-6.9-10.61-10.23-14.19-.25-.3-.25-.6,0-.9.25-.3.6-.3,1.04,0,3.59,2.34,7.42,5.13,11.5,8.37,1.54-5.08,2.81-10.11,3.81-15.09l-7.4.15c-2.44,0-4.93.22-7.47.67l-2.32-2.09,17.18-.45,5-6.2,9.79,6.72c.55.4.57.9.07,1.49l-3.88,4.41c-.15.45-.5,1.47-1.05,3.06l9.34-.75c-.1-2.04-.2-5.1-.3-9.19-.1-5.58-.15-9.98-.15-13.22l12.33,4.63c.35.1.52.27.52.52,0,.15-.12.4-.37.75l-2.02,2.84c-.25,3.99-.32,8.27-.22,12.85l10.31-.82,3.51-3.81,4.41,3.88c.2.15.27.35.22.6s-.2.37-.45.37l-17.93,1.49c.15,5.03.57,9.56,1.27,13.59,1.54-2.34,3.61-5.7,6.2-10.08l8.44,6.57c.65.55.62,1.1-.07,1.64l-2.02,1.64c-3.49,4.48-6.65,8.22-9.49,11.2Zm7.69-31.6c-.85,1.25-1.82,2.15-2.91,2.73-1.1.57-1.97.72-2.62.45-.65-.27-1.02-.88-1.12-1.83-.55-5.08-1.52-8.56-2.91-10.46-.15-.2-.15-.41,0-.63s.4-.29.75-.19c3.63,1.34,6.05,2.42,7.25,3.21,2.79,1.89,3.31,4.13,1.57,6.72Z"/>
      </g>
      <g>
        <path class="cls-1" d="m46.4,242.86c-1.19,0-1.24.05-1.24.79v3.5c0,2.61.12,2.95,1.51,3.1l.72.07c.15.1.1.55-.05.62-1.34-.05-2.18-.07-3.15-.07-1.07,0-1.91.05-2.88.07-.15-.07-.2-.47-.05-.62l.42-.07c1.39-.25,1.44-.5,1.44-3.1v-8.93c0-2.61-.17-3.03-1.46-3.13l-.65-.05c-.15-.1-.1-.55.05-.62,1.22.02,2.06.07,3.13.07.97,0,1.81-.03,2.88-.07.15.07.2.52.05.62l-.47.05c-1.44.15-1.49.52-1.49,3.13v2.85c0,.77.05.79,1.24.79h7.1c1.19,0,1.24-.03,1.24-.79v-2.85c0-2.61-.05-2.98-1.51-3.13l-.47-.05c-.15-.1-.1-.55.05-.62,1.14.05,1.98.07,3,.07s1.81-.03,2.93-.07c.15.07.2.52.05.62l-.52.05c-1.44.15-1.49.52-1.49,3.13v8.93c0,2.61.05,2.93,1.49,3.1l.6.07c.15.1.1.55-.05.62-1.19-.05-2.03-.07-3-.07-1.02,0-1.91.02-3,.07-.15-.07-.2-.47-.05-.62l.47-.07c1.51-.25,1.51-.5,1.51-3.1v-3.5c0-.74-.05-.79-1.24-.79h-7.1Z"/>
        <path class="cls-1" d="m64.11,238.27c0-2.63-.05-3.05-1.51-3.18l-.62-.05c-.15-.1-.1-.55.05-.62,1.24.05,2.08.07,3.13.07s1.84-.03,3.08-.07c.15.07.2.52.05.62l-.62.05c-1.46.12-1.51.55-1.51,3.18v8.83c0,2.63.05,2.98,1.51,3.15l.62.07c.15.1.1.55-.05.62-1.24-.05-2.08-.07-3.08-.07-1.04,0-1.89.02-3.13.07-.15-.07-.2-.47-.05-.62l.62-.07c1.46-.17,1.51-.52,1.51-3.15v-8.83Z"/>
        <path class="cls-1" d="m73.49,237.72c0-1.74-.12-2.26-1.17-2.41l-.55-.07c-.2-.12-.22-.52.02-.62,2.11-.12,4.12-.2,6.23-.2s3.85.15,5.46.74c3.35,1.22,5.04,4.04,5.04,7.32s-1.51,5.86-4.34,7.39c-1.61.87-3.65,1.19-5.56,1.19-1.59,0-3.18-.2-4.04-.2-1.04,0-1.94.02-3.1.07-.15-.07-.2-.47-.05-.62l.57-.07c1.44-.2,1.49-.5,1.49-3.1v-9.43Zm2.03,8.86c0,1.31.07,2.11.5,2.7.55.77,1.49,1.02,3.05,1.02,4.81,0,6.97-3.15,6.97-7.77,0-2.73-1.31-7.34-7.82-7.34-1.46,0-2.26.2-2.46.35-.2.15-.25.77-.25,1.89v9.16Z"/>
        <path class="cls-1" d="m93.83,237.72c0-1.74-.12-2.26-1.17-2.41l-.55-.07c-.2-.12-.22-.52.02-.62,2.11-.12,4.12-.2,6.23-.2s3.85.15,5.46.74c3.35,1.22,5.04,4.04,5.04,7.32s-1.51,5.86-4.34,7.39c-1.61.87-3.65,1.19-5.56,1.19-1.59,0-3.18-.2-4.04-.2-1.04,0-1.94.02-3.1.07-.15-.07-.2-.47-.05-.62l.57-.07c1.44-.2,1.49-.5,1.49-3.1v-9.43Zm2.03,8.86c0,1.31.07,2.11.5,2.7.55.77,1.49,1.02,3.05,1.02,4.81,0,6.97-3.15,6.97-7.77,0-2.73-1.31-7.34-7.82-7.34-1.46,0-2.26.2-2.46.35-.2.15-.25.77-.25,1.89v9.16Z"/>
        <path class="cls-1" d="m114.17,238.22c0-2.58-.05-2.95-1.51-3.13l-.4-.05c-.15-.1-.1-.55.05-.62,1.07.05,1.91.07,2.93.07h4.66c1.59,0,3.05,0,3.35-.07.15.42.3,2.21.4,3.3-.1.15-.5.2-.62.05-.37-1.17-.6-2.04-1.89-2.36-.52-.12-1.31-.15-2.41-.15h-1.79c-.74,0-.74.05-.74.99v4.96c0,.69.07.69.82.69h1.44c1.04,0,1.81-.05,2.11-.15.3-.1.47-.25.6-.87l.2-1.02c.12-.15.55-.15.65.02,0,.6-.1,1.56-.1,2.51,0,.89.1,1.84.1,2.38-.1.17-.52.17-.65.03l-.22-.97c-.1-.45-.27-.82-.77-.94-.35-.1-.94-.12-1.91-.12h-1.44c-.74,0-.82.02-.82.67v3.5c0,1.31.07,2.16.47,2.58.3.3.82.57,3,.57,1.91,0,2.63-.1,3.18-.37.45-.25,1.12-1.12,1.76-2.41.17-.12.52-.05.62.17-.17.87-.79,2.78-1.12,3.45-2.23-.05-4.44-.07-6.65-.07h-2.23c-1.07,0-1.91.02-3.37.07-.15-.07-.2-.47-.05-.62l.82-.07c1.41-.12,1.54-.5,1.54-3.1v-8.93Z"/>
        <path class="cls-1" d="m143,246.65c0,.74,0,3.7.07,4.34-.05.15-.2.27-.47.27-.3-.42-1.02-1.29-3.18-3.75l-5.76-6.55c-.67-.77-2.36-2.8-2.88-3.35h-.05c-.1.3-.12.87-.12,1.61v5.41c0,1.17.02,4.39.45,5.14.15.27.65.42,1.27.47l.77.07c.15.2.12.5-.05.62-1.12-.05-1.98-.07-2.9-.07-1.04,0-1.71.02-2.58.07-.17-.12-.2-.47-.05-.62l.67-.07c.57-.07.97-.22,1.09-.5.35-.89.32-3.92.32-5.11v-7.17c0-.7-.02-1.22-.55-1.79-.35-.35-.94-.52-1.54-.59l-.42-.05c-.15-.15-.15-.52.05-.62,1.04.07,2.36.07,2.8.07.4,0,.82-.03,1.14-.07.5,1.26,3.42,4.54,4.24,5.46l2.41,2.7c1.71,1.91,2.93,3.3,4.09,4.49h.05c.1-.12.1-.52.1-1.04v-5.31c0-1.17-.02-4.39-.5-5.14-.15-.22-.55-.37-1.54-.5l-.42-.05c-.17-.15-.15-.55.05-.62,1.14.05,1.98.07,2.93.07,1.07,0,1.71-.03,2.56-.07.2.12.2.47.05.62l-.35.05c-.79.12-1.29.32-1.39.52-.42.89-.37,3.97-.37,5.11v5.93Z"/>
        <path class="cls-1" d="m157.26,237.72c0-1.74-.12-2.26-1.17-2.41l-.55-.07c-.2-.12-.22-.52.02-.62,2.11-.12,4.12-.2,6.23-.2s3.85.15,5.46.74c3.35,1.22,5.04,4.04,5.04,7.32s-1.51,5.86-4.34,7.39c-1.61.87-3.65,1.19-5.56,1.19-1.59,0-3.18-.2-4.04-.2-1.04,0-1.94.02-3.1.07-.15-.07-.2-.47-.05-.62l.57-.07c1.44-.2,1.49-.5,1.49-3.1v-9.43Zm2.03,8.86c0,1.31.07,2.11.5,2.7.55.77,1.49,1.02,3.05,1.02,4.81,0,6.97-3.15,6.97-7.77,0-2.73-1.31-7.34-7.82-7.34-1.46,0-2.26.2-2.46.35-.2.15-.25.77-.25,1.89v9.16Z"/>
        <path class="cls-1" d="m177.6,238.24c0-2.36-.07-2.78-1.09-2.9l-.79-.1c-.17-.12-.17-.52.02-.62,1.39-.12,3.1-.2,5.53-.2,1.54,0,3,.12,4.14.74,1.19.62,2.06,1.74,2.06,3.47,0,2.36-1.86,3.65-3.1,4.14-.12.15,0,.4.12.59,1.98,3.2,3.3,5.19,4.99,6.6.42.37,1.04.65,1.71.7.12.05.15.25.02.35-.22.08-.62.12-1.09.12-2.11,0-3.37-.62-5.14-3.13-.65-.92-1.66-2.63-2.43-3.75-.37-.55-.77-.79-1.76-.79-1.12,0-1.17.02-1.17.55v3.13c0,2.61.05,2.9,1.49,3.1l.52.07c.15.12.1.55-.05.62-1.12-.05-1.96-.07-2.95-.07-1.04,0-1.94.02-3.1.07-.15-.07-.2-.45-.05-.62l.62-.07c1.44-.17,1.49-.5,1.49-3.1v-8.91Zm2.03,3.55c0,.45,0,.72.07.82.07.07.45.12,1.71.12.89,0,1.84-.1,2.56-.65.67-.52,1.24-1.39,1.24-3.08,0-1.96-1.22-3.82-3.97-3.82-1.54,0-1.61.1-1.61.79v5.81Z"/>
        <path class="cls-1" d="m201.52,245.12c-.17-.55-.27-.62-1.02-.62h-3.75c-.62,0-.77.07-.94.59l-.87,2.61c-.37,1.12-.55,1.79-.55,2.06,0,.3.12.45.72.5l.82.07c.17.12.17.52-.05.62-.65-.05-1.41-.05-2.58-.07-.82,0-1.71.05-2.38.07-.15-.1-.2-.5-.05-.62l.82-.07c.6-.05,1.14-.32,1.49-1.22.45-1.14,1.14-2.75,2.18-5.53l2.53-6.7c.35-.89.5-1.37.42-1.76.6-.17,1.02-.62,1.29-.94.15,0,.32.05.37.22.32,1.09.72,2.23,1.09,3.32l3.4,9.97c.72,2.13,1.04,2.51,2.11,2.63l.67.07c.17.12.12.52,0,.62-1.02-.05-1.89-.07-3-.07-1.19,0-2.13.05-2.85.07-.2-.1-.22-.5-.05-.62l.72-.07c.52-.05.87-.2.87-.45,0-.27-.12-.72-.32-1.32l-1.09-3.37Zm-4.91-2.21c-.2.57-.17.59.52.59h3.05c.72,0,.77-.1.55-.77l-1.34-4.04c-.2-.6-.42-1.27-.57-1.56h-.05c-.07.12-.32.72-.6,1.46l-1.56,4.32Z"/>
        <path class="cls-1" d="m223.65,248.34c0,.99.15,1.59.59,1.76.08.08.08.22-.02.3-.3,0-.74.1-1.22.22-1.31.35-3.1.64-4.44.64-2.95,0-5.66-.82-7.57-2.75-1.49-1.49-2.28-3.45-2.28-5.63s.7-4.24,2.23-5.88c1.66-1.74,4.12-2.9,7.87-2.9,1.41,0,2.73.27,3.15.37.47.1,1.24.27,1.54.22,0,.82.15,2.11.37,3.6-.07.2-.52.22-.67.07-.69-2.68-2.55-3.52-5.09-3.52-4.81,0-6.92,3.42-6.92,7.15,0,4.76,2.46,8.51,7.44,8.51,1.54,0,2.46-.32,2.73-.74.12-.17.25-.62.25-1.41v-.99c0-2.08-.07-2.23-1.61-2.41l-1.09-.12c-.2-.1-.17-.55,0-.62.72.05,2.08.07,3.55.07.97,0,1.81-.02,2.63-.07.17.1.2.47.03.62l-.4.05c-1.04.12-1.07.82-1.07,2.08v1.39Z"/>
        <path class="cls-1" d="m228.23,242.86c0-4.96,3.72-8.76,8.83-8.76,5.73,0,8.61,4.14,8.61,8.51,0,5.01-3.82,8.66-8.61,8.66-5.51,0-8.83-3.94-8.83-8.41Zm14.96.52c0-4.09-1.81-8.51-6.55-8.51-2.58,0-5.93,1.76-5.93,7.2,0,3.67,1.79,8.44,6.67,8.44,2.98,0,5.81-2.23,5.81-7.12Z"/>
        <path class="cls-1" d="m264.33,246.65c0,.74,0,3.7.07,4.34-.05.15-.2.27-.47.27-.3-.42-1.02-1.29-3.18-3.75l-5.76-6.55c-.67-.77-2.36-2.8-2.88-3.35h-.05c-.1.3-.12.87-.12,1.61v5.41c0,1.17.02,4.39.45,5.14.15.27.65.42,1.27.47l.77.07c.15.2.12.5-.05.62-1.12-.05-1.99-.07-2.9-.07-1.04,0-1.71.02-2.58.07-.17-.12-.2-.47-.05-.62l.67-.07c.57-.07.97-.22,1.09-.5.35-.89.32-3.92.32-5.11v-7.17c0-.7-.02-1.22-.55-1.79-.35-.35-.94-.52-1.54-.59l-.42-.05c-.15-.15-.15-.52.05-.62,1.04.07,2.36.07,2.8.07.4,0,.82-.03,1.14-.07.5,1.26,3.42,4.54,4.24,5.46l2.41,2.7c1.71,1.91,2.93,3.3,4.09,4.49h.05c.1-.12.1-.52.1-1.04v-5.31c0-1.17-.03-4.39-.5-5.14-.15-.22-.55-.37-1.54-.5l-.42-.05c-.17-.15-.15-.55.05-.62,1.14.05,1.98.07,2.93.07,1.07,0,1.71-.03,2.56-.07.2.12.2.47.05.62l-.35.05c-.79.12-1.29.32-1.39.52-.42.89-.37,3.97-.37,5.11v5.93Z"/>
        <path class="cls-1" d="m291.49,248.34c0,.99.15,1.59.6,1.76.07.08.07.22-.02.3-.3,0-.75.1-1.22.22-1.32.35-3.1.64-4.44.64-2.95,0-5.66-.82-7.57-2.75-1.49-1.49-2.28-3.45-2.28-5.63s.69-4.24,2.23-5.88c1.66-1.74,4.12-2.9,7.87-2.9,1.41,0,2.73.27,3.15.37.47.1,1.24.27,1.54.22,0,.82.15,2.11.37,3.6-.07.2-.52.22-.67.07-.69-2.68-2.56-3.52-5.09-3.52-4.81,0-6.92,3.42-6.92,7.15,0,4.76,2.46,8.51,7.44,8.51,1.54,0,2.46-.32,2.73-.74.12-.17.25-.62.25-1.41v-.99c0-2.08-.07-2.23-1.61-2.41l-1.09-.12c-.2-.1-.17-.55,0-.62.72.05,2.08.07,3.55.07.97,0,1.81-.02,2.63-.07.17.1.2.47.02.62l-.4.05c-1.04.12-1.07.82-1.07,2.08v1.39Z"/>
        <path class="cls-1" d="m305.04,245.12c-.17-.55-.27-.62-1.02-.62h-3.75c-.62,0-.77.07-.94.59l-.87,2.61c-.37,1.12-.55,1.79-.55,2.06,0,.3.12.45.72.5l.82.07c.17.12.17.52-.05.62-.64-.05-1.41-.05-2.58-.07-.82,0-1.71.05-2.38.07-.15-.1-.2-.5-.05-.62l.82-.07c.6-.05,1.14-.32,1.49-1.22.45-1.14,1.14-2.75,2.18-5.53l2.53-6.7c.35-.89.5-1.37.42-1.76.6-.17,1.02-.62,1.29-.94.15,0,.32.05.37.22.32,1.09.72,2.23,1.09,3.32l3.4,9.97c.72,2.13,1.04,2.51,2.11,2.63l.67.07c.17.12.12.52,0,.62-1.02-.05-1.89-.07-3-.07-1.19,0-2.13.05-2.85.07-.2-.1-.22-.5-.05-.62l.72-.07c.52-.05.87-.2.87-.45,0-.27-.12-.72-.32-1.32l-1.09-3.37Zm-4.91-2.21c-.2.57-.17.59.52.59h3.05c.72,0,.77-.1.55-.77l-1.34-4.04c-.2-.6-.42-1.27-.57-1.56h-.05c-.07.12-.32.72-.59,1.46l-1.56,4.32Z"/>
        <path class="cls-1" d="m321.04,244.25c.57,1.17,1.12,2.31,1.71,3.4h.05c.67-1.17,1.29-2.46,1.91-3.72l2.33-4.74c1.12-2.26,1.84-3.62,1.89-4.76.84.07,1.37.07,1.86.07.62,0,1.44-.03,2.21-.07.15.1.15.52.02.62l-.52.05c-1.56.15-1.76.62-1.74,2.36.05,2.63.07,7.22.27,10.79.07,1.24.05,1.91,1.22,2.01l.79.07c.15.15.12.52-.05.62-1.02-.05-2.03-.07-2.93-.07s-1.99.02-3,.07c-.17-.12-.2-.47-.05-.62l.72-.07c1.22-.12,1.22-.52,1.22-2.11l-.08-10.35h-.05c-.17.27-1.12,2.26-1.61,3.23l-2.21,4.34c-1.12,2.18-2.23,4.52-2.68,5.66-.05.08-.15.1-.25.1-.05,0-.17-.02-.22-.1-.42-1.31-1.61-3.75-2.18-4.96l-2.23-4.79c-.52-1.14-1.04-2.43-1.59-3.57h-.05c-.1,1.54-.17,2.98-.25,4.42-.07,1.51-.17,3.72-.17,5.83,0,1.84.15,2.23,1.12,2.31l.94.07c.17.15.15.55-.02.62-.84-.05-1.81-.07-2.75-.07-.79,0-1.69.02-2.53.07-.15-.12-.2-.5-.05-.62l.55-.07c1.04-.15,1.39-.3,1.54-2.03.15-1.64.27-3,.42-5.46.12-2.06.22-4.17.27-5.53.05-1.56-.15-1.94-1.66-2.13l-.4-.05c-.12-.15-.1-.52.1-.62.74.05,1.34.07,1.96.07.57,0,1.24,0,2.06-.07-.1.97.52,2.51,1.29,4.09l2.83,5.73Z"/>
        <path class="cls-1" d="m338.18,238.22c0-2.58-.05-2.95-1.51-3.13l-.4-.05c-.15-.1-.1-.55.05-.62,1.07.05,1.91.07,2.93.07h4.67c1.59,0,3.05,0,3.35-.07.15.42.3,2.21.4,3.3-.1.15-.5.2-.62.05-.37-1.17-.6-2.04-1.89-2.36-.52-.12-1.31-.15-2.41-.15h-1.79c-.75,0-.75.05-.75.99v4.96c0,.69.08.69.82.69h1.44c1.04,0,1.81-.05,2.11-.15s.47-.25.6-.87l.2-1.02c.12-.15.55-.15.64.02,0,.6-.1,1.56-.1,2.51,0,.89.1,1.84.1,2.38-.1.17-.52.17-.64.03l-.22-.97c-.1-.45-.27-.82-.77-.94-.35-.1-.94-.12-1.91-.12h-1.44c-.74,0-.82.02-.82.67v3.5c0,1.31.08,2.16.47,2.58.3.3.82.57,3,.57,1.91,0,2.63-.1,3.18-.37.45-.25,1.12-1.12,1.76-2.41.17-.12.52-.05.62.17-.17.87-.79,2.78-1.12,3.45-2.23-.05-4.44-.07-6.65-.07h-2.23c-1.07,0-1.91.02-3.37.07-.15-.07-.2-.47-.05-.62l.82-.07c1.41-.12,1.54-.5,1.54-3.1v-8.93Z"/>
        <path class="cls-1" d="m356.04,251.27c-2.08,0-3.4-.64-3.87-.92-.3-.54-.62-2.31-.67-3.47.12-.17.5-.22.59-.08.37,1.27,1.39,3.7,4.27,3.7,2.08,0,3.1-1.36,3.1-2.85,0-1.09-.22-2.31-2.03-3.47l-2.36-1.54c-1.24-.82-2.68-2.23-2.68-4.27,0-2.36,1.84-4.27,5.06-4.27.77,0,1.66.15,2.31.32.32.1.67.15.87.15.22.6.45,1.99.45,3.03-.1.15-.5.22-.62.07-.32-1.19-.99-2.8-3.37-2.8s-2.95,1.61-2.95,2.75c0,1.44,1.19,2.48,2.11,3.05l1.99,1.24c1.56.97,3.1,2.41,3.1,4.76,0,2.73-2.06,4.59-5.29,4.59Z"/>
      </g>
    </g>
  </g>
</svg>