<?xml version="1.0" encoding="UTF-8"?>
<svg id="_图层_2" data-name="图层 2" xmlns="http://www.w3.org/2000/svg" viewBox="0 0 402.25 118.9">
  <g id="_图层_1-2" data-name="图层 1">
    <path d="m351.97,116.79c-25.6-.5-51.34-.89-77.15-1.16,8.01-5.48,15.41-11.91,22.01-19.25,23.1-25.48,35.97-61.68,30.71-95.72,0-.34-.3-.64-.68-.64s-.68.27-.68.64c-.08,16.39-3.33,32.71-9.66,47.78-11.55,28.25-32.9,49.94-58.58,62.93,11.89-15.15,17.68-35.02,12.68-53.77-.08-.38-.34-.68-.68-.68-.38,0-.68.3-.68.68-.23,17.83-7.69,35.37-20.26,47.86-3.75,3.86-7.96,7.14-12.47,9.85-23.61-.13-47.25-.15-70.88-.04-4.49-2.71-8.67-5.97-12.4-9.81-12.61-12.5-20.07-30.03-20.26-47.86-.11-.91-1.21-.83-1.36,0-5,18.86.87,38.81,12.91,53.99-26.28-13.14-47.56-35.93-58.8-63.16-6.32-15.07-9.58-31.39-9.69-47.78,0-.3-.23-.61-.57-.64-.34-.08-.68.19-.76.57-6.77,44.31,16.12,89.55,52.56,114.98-42.61.46-85.12,1.35-127.28,2.79-.79.72,403.05.72,402.25,0,0,0-50.28-1.56-50.28-1.57Z"/>
  </g>
</svg>