<?xml version="1.0" encoding="UTF-8"?>
<svg id="_图层_2" data-name="图层 2" xmlns="http://www.w3.org/2000/svg" viewBox="0 0 320.39 17.17">
  <defs>
    <style>
      .cls-1 {
        fill: #fff;
      }
    </style>
  </defs>
  <g id="_图层_1-2" data-name="图层 1">
    <g>
      <path class="cls-1" d="m5.47,8.76c-1.19,0-1.24.05-1.24.79v3.5c0,2.61.12,2.95,1.51,3.1l.72.07c.15.1.1.55-.05.62-1.34-.05-2.18-.07-3.15-.07-1.07,0-1.91.05-2.88.07-.15-.07-.2-.47-.05-.62l.42-.07c1.39-.25,1.44-.5,1.44-3.1V4.12c0-2.61-.17-3.03-1.46-3.13l-.65-.05C-.06.84,0,.4.14.32c1.22.02,2.06.07,3.13.07.97,0,1.81-.03,2.88-.07.15.07.2.52.05.62l-.47.05c-1.44.15-1.49.52-1.49,3.13v2.85c0,.77.05.79,1.24.79h7.1c1.19,0,1.24-.03,1.24-.79v-2.85c0-2.61-.05-2.98-1.51-3.13l-.47-.05c-.15-.1-.1-.55.05-.62,1.14.05,1.98.07,3,.07s1.81-.03,2.93-.07c.15.07.2.52.05.62l-.52.05c-1.44.15-1.49.52-1.49,3.13v8.93c0,2.61.05,2.93,1.49,3.1l.6.07c.15.1.1.55-.05.62-1.19-.05-2.03-.07-3-.07-1.02,0-1.91.02-3,.07-.15-.07-.2-.47-.05-.62l.47-.07c1.51-.25,1.51-.5,1.51-3.1v-3.5c0-.74-.05-.79-1.24-.79h-7.1Z"/>
      <path class="cls-1" d="m23.19,4.17c0-2.63-.05-3.05-1.51-3.18l-.62-.05c-.15-.1-.1-.55.05-.62,1.24.05,2.08.07,3.13.07s1.84-.03,3.08-.07c.15.07.2.52.05.62l-.62.05c-1.46.12-1.51.55-1.51,3.18v8.83c0,2.63.05,2.98,1.51,3.15l.62.07c.15.1.1.55-.05.62-1.24-.05-2.08-.07-3.08-.07-1.04,0-1.89.02-3.13.07-.15-.07-.2-.47-.05-.62l.62-.07c1.46-.17,1.51-.52,1.51-3.15V4.17Z"/>
      <path class="cls-1" d="m32.56,3.62c0-1.74-.12-2.26-1.17-2.41l-.55-.07c-.2-.12-.22-.52.02-.62,2.11-.12,4.12-.2,6.23-.2s3.85.15,5.46.74c3.35,1.22,5.04,4.04,5.04,7.32s-1.51,5.86-4.34,7.39c-1.61.87-3.65,1.19-5.56,1.19-1.59,0-3.18-.2-4.04-.2-1.04,0-1.94.02-3.1.07-.15-.07-.2-.47-.05-.62l.57-.07c1.44-.2,1.49-.5,1.49-3.1V3.62Zm2.03,8.86c0,1.31.07,2.11.5,2.7.55.77,1.49,1.02,3.05,1.02,4.81,0,6.97-3.15,6.97-7.77,0-2.73-1.31-7.34-7.82-7.34-1.46,0-2.26.2-2.46.35-.2.15-.25.77-.25,1.89v9.16Z"/>
      <path class="cls-1" d="m52.9,3.62c0-1.74-.12-2.26-1.17-2.41l-.55-.07c-.2-.12-.22-.52.02-.62,2.11-.12,4.12-.2,6.23-.2s3.85.15,5.46.74c3.35,1.22,5.04,4.04,5.04,7.32s-1.51,5.86-4.34,7.39c-1.61.87-3.65,1.19-5.56,1.19-1.59,0-3.18-.2-4.04-.2-1.04,0-1.94.02-3.1.07-.15-.07-.2-.47-.05-.62l.57-.07c1.44-.2,1.49-.5,1.49-3.1V3.62Zm2.03,8.86c0,1.31.07,2.11.5,2.7.55.77,1.49,1.02,3.05,1.02,4.81,0,6.97-3.15,6.97-7.77,0-2.73-1.31-7.34-7.82-7.34-1.46,0-2.26.2-2.46.35-.2.15-.25.77-.25,1.89v9.16Z"/>
      <path class="cls-1" d="m73.25,4.12c0-2.58-.05-2.95-1.51-3.13l-.4-.05c-.15-.1-.1-.55.05-.62,1.07.05,1.91.07,2.93.07h4.66c1.59,0,3.05,0,3.35-.07.15.42.3,2.21.4,3.3-.1.15-.5.2-.62.05-.37-1.17-.6-2.04-1.89-2.36-.52-.12-1.31-.15-2.41-.15h-1.79c-.74,0-.74.05-.74.99v4.96c0,.69.07.69.82.69h1.44c1.04,0,1.81-.05,2.11-.15.3-.1.47-.25.6-.87l.2-1.02c.12-.15.55-.15.65.02,0,.6-.1,1.56-.1,2.51,0,.89.1,1.84.1,2.38-.1.17-.52.17-.65.03l-.22-.97c-.1-.45-.27-.82-.77-.94-.35-.1-.94-.12-1.91-.12h-1.44c-.74,0-.82.02-.82.67v3.5c0,1.31.07,2.16.47,2.58.3.3.82.57,3,.57,1.91,0,2.63-.1,3.18-.37.45-.25,1.12-1.12,1.76-2.41.17-.12.52-.05.62.17-.17.87-.79,2.78-1.12,3.45-2.23-.05-4.44-.07-6.65-.07h-2.23c-1.07,0-1.91.02-3.37.07-.15-.07-.2-.47-.05-.62l.82-.07c1.41-.12,1.54-.5,1.54-3.1V4.12Z"/>
      <path class="cls-1" d="m102.07,12.55c0,.74,0,3.7.07,4.34-.05.15-.2.27-.47.27-.3-.42-1.02-1.29-3.18-3.75l-5.76-6.55c-.67-.77-2.36-2.8-2.88-3.35h-.05c-.1.3-.12.87-.12,1.61v5.41c0,1.17.02,4.39.45,5.14.15.27.65.42,1.27.47l.77.07c.15.2.12.5-.05.62-1.12-.05-1.98-.07-2.9-.07-1.04,0-1.71.02-2.58.07-.17-.12-.2-.47-.05-.62l.67-.07c.57-.07.97-.22,1.09-.5.35-.89.32-3.92.32-5.11V3.38c0-.7-.02-1.22-.55-1.79-.35-.35-.94-.52-1.54-.59l-.42-.05c-.15-.15-.15-.52.05-.62,1.04.07,2.36.07,2.8.07.4,0,.82-.03,1.14-.07.5,1.26,3.42,4.54,4.24,5.46l2.41,2.7c1.71,1.91,2.93,3.3,4.09,4.49h.05c.1-.12.1-.52.1-1.04v-5.31c0-1.17-.02-4.39-.5-5.14-.15-.22-.55-.37-1.54-.5l-.42-.05c-.17-.15-.15-.55.05-.62,1.14.05,1.98.07,2.93.07,1.07,0,1.71-.03,2.56-.07.2.12.2.47.05.62l-.35.05c-.79.12-1.29.32-1.39.52-.42.89-.37,3.97-.37,5.11v5.93Z"/>
      <path class="cls-1" d="m116.33,3.62c0-1.74-.12-2.26-1.17-2.41l-.55-.07c-.2-.12-.22-.52.02-.62,2.11-.12,4.12-.2,6.23-.2s3.85.15,5.46.74c3.35,1.22,5.04,4.04,5.04,7.32s-1.51,5.86-4.34,7.39c-1.61.87-3.65,1.19-5.56,1.19-1.59,0-3.18-.2-4.04-.2-1.04,0-1.94.02-3.1.07-.15-.07-.2-.47-.05-.62l.57-.07c1.44-.2,1.49-.5,1.49-3.1V3.62Zm2.03,8.86c0,1.31.07,2.11.5,2.7.55.77,1.49,1.02,3.05,1.02,4.81,0,6.97-3.15,6.97-7.77,0-2.73-1.31-7.34-7.82-7.34-1.46,0-2.26.2-2.46.35-.2.15-.25.77-.25,1.89v9.16Z"/>
      <path class="cls-1" d="m136.68,4.14c0-2.36-.07-2.78-1.09-2.9l-.79-.1c-.17-.12-.17-.52.02-.62,1.39-.12,3.1-.2,5.53-.2,1.54,0,3,.12,4.14.74,1.19.62,2.06,1.74,2.06,3.47,0,2.36-1.86,3.65-3.1,4.14-.12.15,0,.4.12.59,1.98,3.2,3.3,5.19,4.99,6.6.42.37,1.04.65,1.71.7.12.05.15.25.02.35-.22.08-.62.12-1.09.12-2.11,0-3.37-.62-5.14-3.13-.65-.92-1.66-2.63-2.43-3.75-.37-.55-.77-.79-1.76-.79-1.12,0-1.17.02-1.17.55v3.13c0,2.61.05,2.9,1.49,3.1l.52.07c.15.12.1.55-.05.62-1.12-.05-1.96-.07-2.95-.07-1.04,0-1.94.02-3.1.07-.15-.07-.2-.45-.05-.62l.62-.07c1.44-.17,1.49-.5,1.49-3.1V4.14Zm2.03,3.55c0,.45,0,.72.07.82.07.07.45.12,1.71.12.89,0,1.84-.1,2.56-.65.67-.52,1.24-1.39,1.24-3.08,0-1.96-1.22-3.82-3.97-3.82-1.54,0-1.61.1-1.61.79v5.81Z"/>
      <path class="cls-1" d="m160.59,11.02c-.17-.55-.27-.62-1.02-.62h-3.75c-.62,0-.77.07-.94.59l-.87,2.61c-.37,1.12-.55,1.79-.55,2.06,0,.3.12.45.72.5l.82.07c.17.12.17.52-.05.62-.65-.05-1.41-.05-2.58-.07-.82,0-1.71.05-2.38.07-.15-.1-.2-.5-.05-.62l.82-.07c.6-.05,1.14-.32,1.49-1.22.45-1.14,1.14-2.75,2.18-5.53l2.53-6.7c.35-.89.5-1.37.42-1.76.6-.17,1.02-.62,1.29-.94.15,0,.32.05.37.22.32,1.09.72,2.23,1.09,3.32l3.4,9.97c.72,2.13,1.04,2.51,2.11,2.63l.67.07c.17.12.12.52,0,.62-1.02-.05-1.89-.07-3-.07-1.19,0-2.13.05-2.85.07-.2-.1-.22-.5-.05-.62l.72-.07c.52-.05.87-.2.87-.45,0-.27-.12-.72-.32-1.32l-1.09-3.37Zm-4.91-2.21c-.2.57-.17.59.52.59h3.05c.72,0,.77-.1.55-.77l-1.34-4.04c-.2-.6-.42-1.27-.57-1.56h-.05c-.07.12-.32.72-.6,1.46l-1.56,4.32Z"/>
      <path class="cls-1" d="m182.72,14.24c0,.99.15,1.59.59,1.76.08.08.08.22-.02.3-.3,0-.74.1-1.22.22-1.31.35-3.1.64-4.44.64-2.95,0-5.66-.82-7.57-2.75-1.49-1.49-2.28-3.45-2.28-5.63s.7-4.24,2.23-5.88c1.66-1.74,4.12-2.9,7.87-2.9,1.41,0,2.73.27,3.15.37.47.1,1.24.27,1.54.22,0,.82.15,2.11.37,3.6-.07.2-.52.22-.67.07-.69-2.68-2.55-3.52-5.09-3.52-4.81,0-6.92,3.42-6.92,7.15,0,4.76,2.46,8.51,7.44,8.51,1.54,0,2.46-.32,2.73-.74.12-.17.25-.62.25-1.41v-.99c0-2.08-.07-2.23-1.61-2.41l-1.09-.12c-.2-.1-.17-.55,0-.62.72.05,2.08.07,3.55.07.97,0,1.81-.02,2.63-.07.17.1.2.47.03.62l-.4.05c-1.04.12-1.07.82-1.07,2.08v1.39Z"/>
      <path class="cls-1" d="m187.31,8.76c0-4.96,3.72-8.76,8.83-8.76,5.73,0,8.61,4.14,8.61,8.51,0,5.01-3.82,8.66-8.61,8.66-5.51,0-8.83-3.94-8.83-8.41Zm14.96.52c0-4.09-1.81-8.51-6.55-8.51-2.58,0-5.93,1.76-5.93,7.2,0,3.67,1.79,8.44,6.67,8.44,2.98,0,5.81-2.23,5.81-7.12Z"/>
      <path class="cls-1" d="m223.4,12.55c0,.74,0,3.7.07,4.34-.05.15-.2.27-.47.27-.3-.42-1.02-1.29-3.18-3.75l-5.76-6.55c-.67-.77-2.36-2.8-2.88-3.35h-.05c-.1.3-.12.87-.12,1.61v5.41c0,1.17.02,4.39.45,5.14.15.27.65.42,1.27.47l.77.07c.15.2.12.5-.05.62-1.12-.05-1.99-.07-2.9-.07-1.04,0-1.71.02-2.58.07-.17-.12-.2-.47-.05-.62l.67-.07c.57-.07.97-.22,1.09-.5.35-.89.32-3.92.32-5.11V3.38c0-.7-.02-1.22-.55-1.79-.35-.35-.94-.52-1.54-.59l-.42-.05c-.15-.15-.15-.52.05-.62,1.04.07,2.36.07,2.8.07.4,0,.82-.03,1.14-.07.5,1.26,3.42,4.54,4.24,5.46l2.41,2.7c1.71,1.91,2.93,3.3,4.09,4.49h.05c.1-.12.1-.52.1-1.04v-5.31c0-1.17-.03-4.39-.5-5.14-.15-.22-.55-.37-1.54-.5l-.42-.05c-.17-.15-.15-.55.05-.62,1.14.05,1.98.07,2.93.07,1.07,0,1.71-.03,2.56-.07.2.12.2.47.05.62l-.35.05c-.79.12-1.29.32-1.39.52-.42.89-.37,3.97-.37,5.11v5.93Z"/>
      <path class="cls-1" d="m250.56,14.24c0,.99.15,1.59.6,1.76.07.08.07.22-.02.3-.3,0-.75.1-1.22.22-1.32.35-3.1.64-4.44.64-2.95,0-5.66-.82-7.57-2.75-1.49-1.49-2.28-3.45-2.28-5.63s.69-4.24,2.23-5.88c1.66-1.74,4.12-2.9,7.87-2.9,1.41,0,2.73.27,3.15.37.47.1,1.24.27,1.54.22,0,.82.15,2.11.37,3.6-.07.2-.52.22-.67.07-.69-2.68-2.56-3.52-5.09-3.52-4.81,0-6.92,3.42-6.92,7.15,0,4.76,2.46,8.51,7.44,8.51,1.54,0,2.46-.32,2.73-.74.12-.17.25-.62.25-1.41v-.99c0-2.08-.07-2.23-1.61-2.41l-1.09-.12c-.2-.1-.17-.55,0-.62.72.05,2.08.07,3.55.07.97,0,1.81-.02,2.63-.07.17.1.2.47.02.62l-.4.05c-1.04.12-1.07.82-1.07,2.08v1.39Z"/>
      <path class="cls-1" d="m264.11,11.02c-.17-.55-.27-.62-1.02-.62h-3.75c-.62,0-.77.07-.94.59l-.87,2.61c-.37,1.12-.55,1.79-.55,2.06,0,.3.12.45.72.5l.82.07c.17.12.17.52-.05.62-.64-.05-1.41-.05-2.58-.07-.82,0-1.71.05-2.38.07-.15-.1-.2-.5-.05-.62l.82-.07c.6-.05,1.14-.32,1.49-1.22.45-1.14,1.14-2.75,2.18-5.53l2.53-6.7c.35-.89.5-1.37.42-1.76.6-.17,1.02-.62,1.29-.94.15,0,.32.05.37.22.32,1.09.72,2.23,1.09,3.32l3.4,9.97c.72,2.13,1.04,2.51,2.11,2.63l.67.07c.17.12.12.52,0,.62-1.02-.05-1.89-.07-3-.07-1.19,0-2.13.05-2.85.07-.2-.1-.22-.5-.05-.62l.72-.07c.52-.05.87-.2.87-.45,0-.27-.12-.72-.32-1.32l-1.09-3.37Zm-4.91-2.21c-.2.57-.17.59.52.59h3.05c.72,0,.77-.1.55-.77l-1.34-4.04c-.2-.6-.42-1.27-.57-1.56h-.05c-.07.12-.32.72-.59,1.46l-1.56,4.32Z"/>
      <path class="cls-1" d="m280.11,10.15c.57,1.17,1.12,2.31,1.71,3.4h.05c.67-1.17,1.29-2.46,1.91-3.72l2.33-4.74c1.12-2.26,1.84-3.62,1.89-4.76.84.07,1.37.07,1.86.07.62,0,1.44-.03,2.21-.07.15.1.15.52.02.62l-.52.05c-1.56.15-1.76.62-1.74,2.36.05,2.63.07,7.22.27,10.79.07,1.24.05,1.91,1.22,2.01l.79.07c.15.15.12.52-.05.62-1.02-.05-2.03-.07-2.93-.07s-1.99.02-3,.07c-.17-.12-.2-.47-.05-.62l.72-.07c1.22-.12,1.22-.52,1.22-2.11l-.08-10.35h-.05c-.17.27-1.12,2.26-1.61,3.23l-2.21,4.34c-1.12,2.18-2.23,4.52-2.68,5.66-.05.08-.15.1-.25.1-.05,0-.17-.02-.22-.1-.42-1.31-1.61-3.75-2.18-4.96l-2.23-4.79c-.52-1.14-1.04-2.43-1.59-3.57h-.05c-.1,1.54-.17,2.98-.25,4.42-.07,1.51-.17,3.72-.17,5.83,0,1.84.15,2.23,1.12,2.31l.94.07c.17.15.15.55-.02.62-.84-.05-1.81-.07-2.75-.07-.79,0-1.69.02-2.53.07-.15-.12-.2-.5-.05-.62l.55-.07c1.04-.15,1.39-.3,1.54-2.03.15-1.64.27-3,.42-5.46.12-2.06.22-4.17.27-5.53.05-1.56-.15-1.94-1.66-2.13l-.4-.05c-.12-.15-.1-.52.1-.62.74.05,1.34.07,1.96.07.57,0,1.24,0,2.06-.07-.1.97.52,2.51,1.29,4.09l2.83,5.73Z"/>
      <path class="cls-1" d="m297.25,4.12c0-2.58-.05-2.95-1.51-3.13l-.4-.05c-.15-.1-.1-.55.05-.62,1.07.05,1.91.07,2.93.07h4.67c1.59,0,3.05,0,3.35-.07.15.42.3,2.21.4,3.3-.1.15-.5.2-.62.05-.37-1.17-.6-2.04-1.89-2.36-.52-.12-1.31-.15-2.41-.15h-1.79c-.75,0-.75.05-.75.99v4.96c0,.69.08.69.82.69h1.44c1.04,0,1.81-.05,2.11-.15s.47-.25.6-.87l.2-1.02c.12-.15.55-.15.64.02,0,.6-.1,1.56-.1,2.51,0,.89.1,1.84.1,2.38-.1.17-.52.17-.64.03l-.22-.97c-.1-.45-.27-.82-.77-.94-.35-.1-.94-.12-1.91-.12h-1.44c-.74,0-.82.02-.82.67v3.5c0,1.31.08,2.16.47,2.58.3.3.82.57,3,.57,1.91,0,2.63-.1,3.18-.37.45-.25,1.12-1.12,1.76-2.41.17-.12.52-.05.62.17-.17.87-.79,2.78-1.12,3.45-2.23-.05-4.44-.07-6.65-.07h-2.23c-1.07,0-1.91.02-3.37.07-.15-.07-.2-.47-.05-.62l.82-.07c1.41-.12,1.54-.5,1.54-3.1V4.12Z"/>
      <path class="cls-1" d="m315.11,17.17c-2.08,0-3.4-.64-3.87-.92-.3-.54-.62-2.31-.67-3.47.12-.17.5-.22.59-.08.37,1.27,1.39,3.7,4.27,3.7,2.08,0,3.1-1.36,3.1-2.85,0-1.09-.22-2.31-2.03-3.47l-2.36-1.54c-1.24-.82-2.68-2.23-2.68-4.27,0-2.36,1.84-4.27,5.06-4.27.77,0,1.66.15,2.31.32.32.1.67.15.87.15.22.6.45,1.99.45,3.03-.1.15-.5.22-.62.07-.32-1.19-.99-2.8-3.37-2.8s-2.95,1.61-2.95,2.75c0,1.44,1.19,2.48,2.11,3.05l1.99,1.24c1.56.97,3.1,2.41,3.1,4.76,0,2.73-2.06,4.59-5.29,4.59Z"/>
    </g>
  </g>
</svg>